<svg width="220" height="17" viewBox="0 0 220 17" fill="none" xmlns="http://www.w3.org/2000/svg">
<path d="M21.5284 16.6159C21.5284 13.1397 21.5284 9.68111 21.5284 6.14552C21.3929 6.27042 21.308 6.34158 21.2316 6.41984C17.9559 9.7812 14.682 13.1437 11.4054 16.5041C10.7619 17.1641 9.81993 17.1601 9.28417 16.5058C8.85518 15.9815 8.86898 15.2787 9.35608 14.7534C10.0275 14.0297 10.7215 13.3259 11.4053 12.6132C11.7717 12.2314 12.1414 11.8527 12.5 11.4637C12.5733 11.3844 12.6469 11.2672 12.6476 11.1671C12.6567 9.50731 12.654 7.8474 12.654 6.11802C12.5278 6.23427 12.4434 6.30529 12.3668 6.38326C9.07818 9.73215 5.78893 13.0807 2.50347 16.4328C2.22382 16.7178 1.925 16.9515 1.50734 16.993C0.941362 17.0491 0.405309 16.7636 0.150648 16.2721C-0.110841 15.7677 -0.0321039 15.1935 0.388312 14.7555C1.05613 14.0599 1.73745 13.3765 2.41325 12.6881C5.84951 9.18721 9.28562 5.68649 12.7222 2.18592C13.2582 1.63985 13.8544 1.47469 14.4582 1.73143C15.1145 2.01042 15.3796 2.54189 15.3811 3.21328C15.3853 4.84087 15.3827 6.46832 15.3827 8.09619C15.3827 8.2208 15.3827 8.34556 15.3827 8.47045C15.4116 8.49016 15.4404 8.51029 15.4691 8.53013C15.5468 8.43473 15.618 8.3328 15.7037 8.24476C17.6809 6.21343 19.6612 4.18507 21.6371 2.15261C22.045 1.73284 22.5216 1.52573 23.1129 1.66565C23.8327 1.83662 24.2525 2.40126 24.2538 3.19613C24.2573 5.32358 24.2551 7.45088 24.2551 9.57862C24.2551 10.9154 24.2549 12.2524 24.2547 13.5893C24.2547 13.7141 24.2547 13.8386 24.2547 14.0086C24.4453 14.0086 24.5965 14.0086 24.7476 14.0086C27.1302 14.0086 34.5293 14.0063 36.9118 14.0102C37.845 14.0116 38.4573 14.5809 38.4283 15.4017C38.4045 16.0567 37.8424 16.6482 37.173 16.6501C33.6823 16.6596 25.1754 16.6525 21.685 16.6504C21.6506 16.6501 21.6164 16.6355 21.5284 16.6159ZM29.8064 1.61362C30.5676 1.61362 31.3293 1.60809 32.0905 1.61518C32.8689 1.62241 33.4015 2.11915 33.4087 2.82967C33.4161 3.50829 32.883 4.03736 32.126 4.04473C30.5798 4.05975 29.033 4.0599 27.4866 4.04317C26.7316 4.03509 26.2172 3.50801 26.224 2.81167C26.2307 2.12128 26.765 1.62255 27.5222 1.61532C28.2834 1.60795 29.045 1.61376 29.8064 1.61362ZM29.825 7.97229C30.5743 7.97229 31.3239 7.96875 32.0732 7.97314C32.8446 7.97768 33.4003 8.48207 33.4091 9.17643C33.4177 9.87349 32.8725 10.4115 32.1074 10.417C30.5727 10.4283 29.0378 10.4291 27.5031 10.4146C26.7376 10.4074 26.2093 9.86654 26.2244 9.15687C26.239 8.47286 26.7839 7.98094 27.5403 7.97272C27.9209 7.96861 28.3017 7.96946 28.6823 7.96875C29.0632 7.96818 29.4438 7.96861 29.8249 7.96861L29.825 7.97229Z" fill="#E5D39A"/>
<path d="M62.8913 15.8435V5.72971L58.8435 13.2608H57.131L53.0832 5.72971V15.8435H50.014V0.434069H53.3056L57.9761 9.20227L62.6911 0.434069H65.9605V15.8435H62.8913Z" fill="#276B7A"/>
<path d="M74.1771 16.0606C73.243 16.0606 72.3979 15.9086 71.6417 15.6048C70.8855 15.2865 70.2406 14.8596 69.7068 14.3243C69.173 13.7745 68.7579 13.1523 68.4613 12.4578C68.1796 11.7488 68.0387 11.0037 68.0387 10.2223C68.0387 9.13716 68.2834 8.14603 68.7727 7.24896C69.2768 6.35188 69.9885 5.63567 70.9078 5.10031C71.8419 4.55049 72.9391 4.27558 74.1994 4.27558C75.4745 4.27558 76.5643 4.55049 77.4687 5.10031C78.3732 5.63567 79.0626 6.35188 79.5371 7.24896C80.0264 8.13156 80.271 9.08652 80.271 10.1138C80.271 10.2874 80.2636 10.4683 80.2488 10.6564C80.234 10.83 80.2191 10.9747 80.2043 11.0905H71.1969C71.2562 11.6692 71.4267 12.1756 71.7084 12.6097C72.005 13.0438 72.3756 13.3766 72.8204 13.6081C73.2801 13.8251 73.7694 13.9336 74.2883 13.9336C74.8814 13.9336 75.4374 13.7962 75.9564 13.5213C76.4901 13.2319 76.8534 12.8557 77.0462 12.3927L79.6038 13.0872C79.3221 13.6659 78.9144 14.1796 78.3806 14.6281C77.8616 15.0767 77.2463 15.4312 76.5346 15.6916C75.8229 15.9376 75.0371 16.0606 74.1771 16.0606ZM71.1302 9.24568H77.2241C77.1648 8.66692 76.9943 8.16774 76.7125 7.74814C76.4457 7.31407 76.0898 6.98128 75.645 6.74978C75.2002 6.50381 74.7035 6.38082 74.1549 6.38082C73.6211 6.38082 73.1318 6.50381 72.687 6.74978C72.257 6.98128 71.9012 7.31407 71.6195 7.74814C71.3526 8.16774 71.1895 8.66692 71.1302 9.24568Z" fill="#276B7A"/>
<path d="M81.3749 10.1572C81.3749 9.05758 81.5973 8.06645 82.0421 7.18385C82.4869 6.28677 83.1022 5.57779 83.8881 5.05691C84.6739 4.53602 85.5709 4.27558 86.5792 4.27558C87.4391 4.27558 88.2101 4.48538 88.8922 4.90498C89.5891 5.31011 90.1302 5.831 90.5157 6.46763V0H93.496V12.588C93.496 12.8919 93.5479 13.1089 93.6516 13.2391C93.7554 13.3693 93.9334 13.4489 94.1854 13.4779V15.8435C93.6665 15.9448 93.2439 15.9955 92.9177 15.9955C92.3839 15.9955 91.9391 15.8652 91.5833 15.6048C91.2423 15.3443 91.0495 15.0043 91.005 14.5847L90.9605 13.8685C90.5306 14.5775 89.9449 15.1201 89.2035 15.4963C88.477 15.8725 87.7134 16.0606 86.9128 16.0606C86.1121 16.0606 85.3708 15.9086 84.6887 15.6048C84.0215 15.3009 83.4358 14.8813 82.9317 14.346C82.4424 13.8106 82.0569 13.1885 81.7752 12.4795C81.5083 11.756 81.3749 10.982 81.3749 10.1572ZM90.5157 11.6765V8.96353C90.3675 8.54393 90.1302 8.16774 89.804 7.83495C89.4779 7.50216 89.1146 7.24172 88.7143 7.05363C88.3139 6.85106 87.9136 6.74978 87.5133 6.74978C87.0536 6.74978 86.6385 6.84383 86.2678 7.03192C85.8971 7.22002 85.5709 7.47323 85.2892 7.79154C85.0223 8.10986 84.8148 8.47882 84.6665 8.89842C84.533 9.31802 84.4663 9.75932 84.4663 10.2223C84.4663 10.6853 84.5405 11.1266 84.6887 11.5462C84.8518 11.9514 85.0816 12.3059 85.3782 12.6097C85.6747 12.9136 86.0157 13.1523 86.4012 13.3259C86.8016 13.4996 87.2316 13.5864 87.6912 13.5864C87.9729 13.5864 88.2546 13.543 88.5363 13.4561C88.8329 13.3549 89.1072 13.2246 89.3592 13.0655C89.6261 12.8919 89.8559 12.6893 90.0487 12.4578C90.2563 12.2118 90.4119 11.9514 90.5157 11.6765Z" fill="#276B7A"/>
<path fill-rule="evenodd" clip-rule="evenodd" d="M37.0341 1.66565C37.7839 1.66565 38.3973 2.26474 38.3973 2.99568V13.5673C38.1562 13.2351 37.7018 13.0626 36.9117 13.0615L35.671 13.0602V2.99568C35.671 2.26417 36.2844 1.66565 37.0341 1.66565Z" fill="#E5D39A"/>
<path fill-rule="evenodd" clip-rule="evenodd" d="M41.1946 3.65899C42.6394 3.65899 43.8106 4.80189 43.8106 6.21187C43.8106 7.62185 42.6394 8.76475 41.1946 8.76475C41.1222 8.76475 41.0509 8.76192 40.98 8.75625C40.8702 8.71953 40.7522 8.69982 40.6297 8.69982C40.0312 8.69982 39.5459 9.17346 39.5459 9.75752C39.5459 10.3366 40.0232 10.8071 40.6148 10.8149C40.8048 10.8375 40.9983 10.8491 41.1944 10.8491C43.8189 10.8491 45.9464 8.77297 45.9464 6.21187C45.9464 3.65077 43.8189 1.57464 41.1944 1.57464C41.0372 1.57464 40.8818 1.58229 40.7284 1.59675C40.6957 1.59377 40.6629 1.59221 40.6297 1.59221C40.0312 1.59221 39.5459 2.06585 39.5459 2.64991C39.5459 3.23384 40.0312 3.70747 40.6297 3.70747C40.7208 3.70747 40.8096 3.69641 40.8941 3.67572C40.9928 3.6648 41.093 3.65899 41.1946 3.65899Z" fill="#E5D39A"/>
<path d="M107.53 13.2676V15.8937H96.565V0.484388H107.329V3.11048H99.6342V6.82174H106.284V9.25251H99.6342V13.2676H107.53Z" fill="#E5D39A"/>
<path d="M112.595 15.8937L108.303 4.5212H111.394L114.33 13.2459L117.288 4.5212H120.113L115.842 15.8937H112.595Z" fill="#E5D39A"/>
<path d="M126.701 16.1107C125.767 16.1107 124.921 15.9588 124.165 15.655C123.409 15.3367 122.764 14.9098 122.23 14.3745C121.697 13.8247 121.281 13.2025 120.985 12.508C120.703 11.799 120.562 11.0539 120.562 10.2726C120.562 9.1874 120.807 8.19628 121.296 7.29921C121.8 6.40215 122.512 5.68594 123.431 5.15059C124.365 4.60077 125.463 4.32587 126.723 4.32587C127.998 4.32587 129.088 4.60077 129.992 5.15059C130.897 5.68594 131.586 6.40215 132.061 7.29921C132.55 8.18181 132.795 9.13676 132.795 10.164C132.795 10.3377 132.787 10.5185 132.772 10.7066C132.757 10.8803 132.743 11.0249 132.728 11.1407H123.72C123.78 11.7194 123.95 12.2259 124.232 12.6599C124.529 13.094 124.899 13.4268 125.344 13.6583C125.804 13.8753 126.293 13.9838 126.812 13.9838C127.405 13.9838 127.961 13.8464 128.48 13.5715C129.014 13.2821 129.377 12.9059 129.57 12.4429L132.127 13.1374C131.846 13.7161 131.438 14.2298 130.904 14.6783C130.385 15.1269 129.77 15.4813 129.058 15.7418C128.346 15.9878 127.561 16.1107 126.701 16.1107ZM123.654 9.29592H129.748C129.688 8.71716 129.518 8.21799 129.236 7.79839C128.969 7.36432 128.613 7.03154 128.169 6.80004C127.724 6.55407 127.227 6.43108 126.678 6.43108C126.145 6.43108 125.655 6.55407 125.211 6.80004C124.781 7.03154 124.425 7.36432 124.143 7.79839C123.876 8.21799 123.713 8.71716 123.654 9.29592Z" fill="#E5D39A"/>
<path d="M145.441 15.8937H142.461V9.51295C142.461 8.60141 142.298 7.93584 141.972 7.51625C141.645 7.09665 141.193 6.88685 140.615 6.88685C140.215 6.88685 139.807 6.98813 139.392 7.1907C138.991 7.39326 138.628 7.6754 138.302 8.03713C137.976 8.38438 137.739 8.78951 137.59 9.25251V15.8937H134.61V4.5212H137.301V6.62641C137.598 6.13447 137.976 5.72211 138.435 5.38933C138.895 5.04207 139.421 4.78164 140.014 4.60801C140.622 4.41991 141.26 4.32587 141.927 4.32587C142.654 4.32587 143.247 4.45609 143.706 4.71653C144.181 4.9625 144.537 5.30251 144.774 5.73658C145.026 6.15618 145.196 6.63365 145.285 7.16899C145.389 7.70434 145.441 8.24692 145.441 8.79674V15.8937Z" fill="#E5D39A"/>
<path d="M154.951 15.3077C154.699 15.409 154.395 15.5248 154.039 15.655C153.683 15.7852 153.298 15.8865 152.882 15.9588C152.482 16.0456 152.074 16.089 151.659 16.089C151.111 16.089 150.606 15.995 150.147 15.8069C149.687 15.6188 149.317 15.3222 149.035 14.9171C148.768 14.4975 148.634 13.9549 148.634 13.2893V6.75663H147.1V4.5212H148.634V0.831641H151.615V4.5212H154.061V6.75663H151.615V12.3127C151.63 12.7033 151.741 12.9855 151.948 13.1591C152.156 13.3327 152.415 13.4195 152.727 13.4195C153.038 13.4195 153.342 13.3689 153.639 13.2676C153.935 13.1663 154.172 13.0795 154.35 13.0072L154.951 15.3077Z" fill="#E5D39A"/>
<path d="M156.792 15.8937V0.484388H163.486C164.213 0.484388 164.88 0.629076 165.488 0.918453C166.096 1.20783 166.622 1.59849 167.067 2.09043C167.527 2.58237 167.882 3.13219 168.135 3.73988C168.387 4.34757 168.513 4.96973 168.513 5.60636C168.513 6.47449 168.305 7.29921 167.89 8.08053C167.475 8.86185 166.904 9.49848 166.177 9.99042C165.451 10.4824 164.591 10.7283 163.598 10.7283H159.861V15.8937H156.792ZM159.861 8.10223H163.42C163.79 8.10223 164.124 8.00095 164.42 7.79839C164.717 7.59583 164.954 7.30645 165.132 6.93026C165.31 6.5396 165.399 6.0983 165.399 5.60636C165.399 5.07101 165.295 4.61524 165.088 4.23905C164.895 3.86286 164.635 3.58072 164.309 3.39263C163.998 3.20453 163.657 3.11048 163.286 3.11048H159.861V8.10223Z" fill="#E5D39A"/>
<path d="M170.337 0.050323H173.318V12.2476C173.318 12.7684 173.407 13.1229 173.584 13.311C173.762 13.4846 174.007 13.5715 174.318 13.5715C174.556 13.5715 174.8 13.5425 175.052 13.4846C175.304 13.4268 175.527 13.3544 175.72 13.2676L176.12 15.4813C175.72 15.6694 175.252 15.8141 174.719 15.9154C174.185 16.0167 173.703 16.0673 173.273 16.0673C172.339 16.0673 171.612 15.8286 171.094 15.3511C170.589 14.8592 170.337 14.1647 170.337 13.2676V0.050323Z" fill="#E5D39A"/>
<path d="M176.618 12.5297C176.618 11.7918 176.825 11.1479 177.24 10.5981C177.67 10.0338 178.263 9.59976 179.02 9.29592C179.776 8.99207 180.643 8.84015 181.622 8.84015C182.111 8.84015 182.608 8.87632 183.112 8.94866C183.616 9.02101 184.053 9.13676 184.424 9.29592V8.68822C184.424 7.96478 184.202 7.40773 183.757 7.01707C183.327 6.62641 182.682 6.43108 181.822 6.43108C181.184 6.43108 180.576 6.5396 179.998 6.75663C179.42 6.97367 178.812 7.29198 178.174 7.71158L177.218 5.80169C177.989 5.30975 178.775 4.94079 179.576 4.69482C180.391 4.44885 181.244 4.32587 182.133 4.32587C183.794 4.32587 185.084 4.73099 186.003 5.54125C186.937 6.3515 187.404 7.50901 187.404 9.01377V12.6382C187.404 12.9421 187.456 13.1591 187.56 13.2893C187.679 13.4195 187.864 13.4991 188.116 13.5281V15.8937C187.849 15.9371 187.604 15.9733 187.382 16.0022C187.174 16.0312 186.996 16.0456 186.848 16.0456C186.255 16.0456 185.803 15.9154 185.492 15.655C185.195 15.3945 185.01 15.0762 184.936 14.7L184.869 14.114C184.365 14.7507 183.735 15.2426 182.978 15.5899C182.222 15.9371 181.451 16.1107 180.665 16.1107C179.894 16.1107 179.198 15.9588 178.575 15.655C177.967 15.3367 177.485 14.9098 177.129 14.3745C176.788 13.8247 176.618 13.2097 176.618 12.5297ZM183.868 13.1157C184.031 12.9421 184.165 12.7684 184.268 12.5948C184.372 12.4212 184.424 12.262 184.424 12.1173V10.9671C184.068 10.8224 183.683 10.7139 183.268 10.6415C182.852 10.5547 182.459 10.5113 182.089 10.5113C181.318 10.5113 180.68 10.6777 180.176 11.0105C179.687 11.3288 179.442 11.7556 179.442 12.291C179.442 12.5803 179.524 12.8553 179.687 13.1157C179.85 13.3761 180.087 13.5859 180.399 13.7451C180.71 13.9042 181.081 13.9838 181.511 13.9838C181.955 13.9838 182.393 13.9042 182.823 13.7451C183.253 13.5715 183.601 13.3617 183.868 13.1157Z" fill="#E5D39A"/>
<path d="M201.02 15.8937H198.04V9.51295C198.04 8.60141 197.877 7.93584 197.551 7.51625C197.224 7.09665 196.772 6.88685 196.194 6.88685C195.794 6.88685 195.386 6.98813 194.971 7.1907C194.57 7.39326 194.207 7.6754 193.881 8.03713C193.555 8.38438 193.318 8.78951 193.169 9.25251V15.8937H190.189V4.5212H192.88V6.62641C193.177 6.13447 193.555 5.72211 194.014 5.38933C194.474 5.04207 195 4.78164 195.594 4.60801C196.201 4.41991 196.839 4.32587 197.506 4.32587C198.233 4.32587 198.826 4.45609 199.285 4.71653C199.76 4.9625 200.116 5.30251 200.353 5.73658C200.605 6.15618 200.776 6.63365 200.864 7.16899C200.968 7.70434 201.02 8.24692 201.02 8.79674V15.8937Z" fill="#E5D39A"/>
<path d="M203.612 15.8937V4.5212H206.592V15.8937H203.612ZM203.612 2.93686V0.050323H206.592V2.93686H203.612Z" fill="#E5D39A"/>
<path d="M214.707 16.1107C213.758 16.1107 212.905 15.9588 212.149 15.655C211.393 15.3367 210.748 14.9026 210.214 14.3528C209.681 13.7885 209.265 13.1519 208.969 12.4429C208.687 11.7339 208.546 10.9888 208.546 10.2075C208.546 9.13676 208.791 8.16011 209.28 7.27751C209.784 6.38044 210.496 5.66423 211.415 5.12889C212.335 4.59354 213.424 4.32587 214.685 4.32587C215.945 4.32587 217.027 4.59354 217.932 5.12889C218.836 5.66423 219.511 6.36597 219.956 7.2341L217.042 8.10223C216.79 7.68264 216.456 7.36432 216.041 7.14729C215.626 6.91579 215.166 6.80004 214.662 6.80004C214.099 6.80004 213.58 6.94473 213.106 7.2341C212.646 7.50901 212.283 7.90691 212.016 8.42778C211.749 8.93419 211.615 9.52742 211.615 10.2075C211.615 10.873 211.749 11.4662 212.016 11.9871C212.297 12.4935 212.668 12.8987 213.128 13.2025C213.587 13.4919 214.099 13.6366 214.662 13.6366C215.018 13.6366 215.352 13.5787 215.663 13.4629C215.989 13.3472 216.278 13.188 216.531 12.9855C216.783 12.7829 216.968 12.5514 217.087 12.291L220 13.1591C219.733 13.7234 219.34 14.2298 218.821 14.6783C218.317 15.1269 217.717 15.4813 217.02 15.7418C216.338 15.9878 215.567 16.1107 214.707 16.1107Z" fill="#E5D39A"/>
</svg>
